# xmcd
#
# Track frame offsets: 
#        150
#        14077
#        29022
#        43674
#        56877
#        70199
#        82662
#        98645
#        114956
#        130411
#        147001
#        162428
#        175575
#        192048
#        208976
#
# Disc length: 2954 seconds
#
# Revision: 0
# Processed by: cddbd v1.5.2PL0 Copyright (c) Steve Scherf et al.
# Submitted via: ExactAudioCopy v1.0b3
#
DISCID=cf0b880f
DTITLE=Michael Bublé - To Be Loved
DYEAR=2013
DGENRE=Pop
TTITLE0=You Make Me Feel So Young
TTITLE1=It's A Beautiful Day
TTITLE2=To Love Somebody
TTITLE3=Who's Lovin' You
TTITLE4=Something Stupid
TTITLE5=Come Dance With Me
TTITLE6=Close Your Eyes
TTITLE7=After All
TTITLE8=Have I Told You Lately That I Love You
TTITLE9=To Be Loved
TTITLE10=You've Got A Friend In Me
TTITLE11=Nevertheless (I'm In Love With You)
TTITLE12=I Got It Easy
TTITLE13=Young At Heart
TTITLE14=Be My Baby
EXTD=
EXTT0=
EXTT1=
EXTT2=
EXTT3=
EXTT4=
EXTT5=
EXTT6=
EXTT7=
EXTT8=
EXTT9=
EXTT10=
EXTT11=
EXTT12=
EXTT13=
EXTT14=
PLAYORDER=
